<?xml version="1.0" encoding="utf-8"?>
<!-- Generator: Adobe Illustrator 23.0.2, SVG Export Plug-In . SVG Version: 6.00 Build 0)  -->
<svg version="1.1" id="Layer_1" xmlns="http://www.w3.org/2000/svg" xmlns:xlink="http://www.w3.org/1999/xlink" x="0px" y="0px"
	 viewBox="0 0 73.6 74.4" style="enable-background:new 0 0 73.6 74.4;" xml:space="preserve">
<style type="text/css">
	.st0{fill:#4381B2;}
	.st1{fill:none;}
</style>
<g>
	<path class="st0" d="M73.5,37.8c-0.1-0.6-0.6-0.3-0.5-0.3C73,37.8,73.4,37.7,73.5,37.8z"/>
	<polygon class="st0" points="71.6,32 71.8,32.1 71.3,31.3 	"/>
	<path class="st0" d="M71,29.7l-0.1,0.2l0.7,0.3c-0.4-1.1-1.1-2.4-1.1-3.2C69.9,27.6,71,28.7,71,29.7z"/>
	<path class="st0" d="M71.1,24.3c0-0.1-0.1-0.3-0.2-0.5c-0.2,0.3-0.4-0.5,0.1,0.7C71.1,24.4,71.1,24.4,71.1,24.3z"/>
	<path class="st0" d="M71.1,24.3C71.3,24.8,71.2,23.9,71.1,24.3L71.1,24.3z"/>
	<path class="st0" d="M70.6,21.9C70.1,21.2,70,21.5,70,22l0.5,0.6C70.6,22.3,70.3,21.7,70.6,21.9z"/>
	<path class="st0" d="M69.2,21.6l0.3,0.3C69.5,21.8,69.5,21.7,69.2,21.6z"/>
	<path class="st0" d="M70,22.5l-0.6-0.6c-0.1,0.1-0.3,0.3,0.2,0.3C69.5,22.2,69.7,22.3,70,22.5z"/>
	<path class="st0" d="M70.1,23c0,0.4,0.1,1-0.4,0.4C70.3,24.6,70.7,24.2,70.1,23z"/>
	<path class="st0" d="M69.7,26.9c0,0.2,0,0.4,0,0.6l0.3,0.4C69.8,27.7,69.9,26.8,69.7,26.9z"/>
	<path class="st0" d="M68.1,18.7c-0.1-0.3-0.3-0.8-0.1-1c-0.2,0-0.2,0.4-0.3,0.6L68.1,18.7z"/>
	<path class="st0" d="M67.7,18.3l-0.6-0.6C67.4,18.4,67.6,18.4,67.7,18.3z"/>
	<polygon class="st0" points="69.5,22.7 68.3,21.6 68.4,21.8 	"/>
	<polygon class="st0" points="66.8,15.3 65.9,14.9 66.3,15.1 	"/>
	<path class="st0" d="M65.4,12.9c-0.4-0.4-0.9-0.6-1.4-0.8c0.4,0.3,0.7,0.7,1,1.3C65.4,13.5,65,12.8,65.4,12.9z"/>
	<path class="st0" d="M63.2,11.8c0.2,0.1,0.5,0.2,0.7,0.3C63.8,12,63.5,11.9,63.2,11.8z"/>
	<path class="st0" d="M66.3,15.8l-0.2,0.5c0.1,0.1,0.1,0.2,0.2,0.3C66.4,16.4,66.5,16.2,66.3,15.8z"/>
	<path class="st0" d="M66.2,16.3c-0.2-0.3-0.3-0.5-0.4-0.6C65.8,15.8,65.9,16,66.2,16.3L66.2,16.3z"/>
	<path class="st0" d="M66.4,16.6C66.4,16.6,66.4,16.6,66.4,16.6C66.3,16.6,66.3,16.6,66.4,16.6z"/>
	<path class="st0" d="M66.8,19.8c0.4,0.1,0.3-0.4,1,0C67.3,19.5,66.6,18.8,66.8,19.8z"/>
	<path class="st0" d="M66.6,18c0.1-0.1,0.1-0.3,0.4-0.2c-0.2-0.2-0.5-0.4-0.7-0.6C66.3,17.5,66.5,17.7,66.6,18z"/>
	<polygon class="st0" points="65.8,17 66.2,17.2 66,16.9 	"/>
	<path class="st0" d="M64,13.2c-0.4-0.2-0.7-0.4-1-0.8c0.3,0.4,0.6,0.8,0.9,1.2C64,13.6,64.3,13.6,64,13.2z"/>
	<path class="st0" d="M65,14.7C65,14.7,65,14.7,65,14.7C65,14.7,65,14.8,65,14.7z"/>
	<polygon class="st0" points="59.7,9.4 59.7,9.4 59.7,9.3 	"/>
	<path class="st0" d="M64.5,14.3c-0.2-0.2-0.4-0.4-0.6-0.6c-0.1,0-0.1,0,0,0.1C64,14.1,64.3,14.2,64.5,14.3z"/>
	<path class="st0" d="M62.2,11.1c0.1,0.2,0.2,0.4,0.3,0.6C62.5,11.4,62.3,11,62.2,11.1z"/>
	<path class="st0" d="M65,14.5C65,14.5,65,14.5,65,14.5C65,14.4,65,14.4,65,14.5z"/>
	<path class="st0" d="M65,14.5c-0.2-0.1-0.3-0.2-0.5-0.2c0.2,0.2,0.3,0.3,0.5,0.4C65,14.6,65,14.5,65,14.5z"/>
	<path class="st0" d="M59.7,9.4l1.2,1.2l-0.1,0l0.3,0.2c-0.2-0.3-0.4-0.6-0.5-1.2C60,9.3,59.8,9.3,59.7,9.4z"/>
	<path class="st0" d="M62.3,11.8c-0.5,0.1-1.2-0.3-1.2,0.4c0.7,0.7,0.7,0.3,1.3,0.6C61.2,11.6,62.9,12.9,62.3,11.8
		c0.2,0.2,0.5,0.4,0.7,0.6c-0.2-0.3-0.3-0.5-0.4-0.8c0,0,0,0,0,0l0,0l0,0c0,0.1,0,0.1,0,0c0,0,0,0,0,0
		C62.4,11.8,62.3,11.8,62.3,11.8c-0.3-0.4,0-0.1,0.2-0.1c0,0,0,0,0.1,0v0c-0.4-0.4-0.9-0.7-1.4-1C61.3,11,61.7,11.3,62.3,11.8z"/>
	<path class="st0" d="M65.9,17.7C65.9,17.6,65.9,17.6,65.9,17.7C65.9,17.6,65.9,17.6,65.9,17.7z"/>
	<path class="st0" d="M65.9,19.2c0.1,0.3-0.2,0.1-0.3,0.2l0,0c-0.1-0.1-0.1-0.1-0.1,0.1c0-0.1,0-0.1,0.1-0.1
		c0.2,0.1,0.7,0.5,0.5-0.2L65.9,19.2c-0.1-0.6-0.1-1.3,0-1.5c-0.2,0.3-0.3,0.6-0.4,1.2C65.6,18.9,65.8,18.9,65.9,19.2z"/>
	<path class="st0" d="M63.1,15.2l0.1-0.2c0.4,0.6,0.5,0.3,0.7,0.3c-0.3-0.3-0.7-0.6-1-0.9L63.1,15.2z"/>
	<path class="st0" d="M60.1,8.8c-0.3,0-0.7,0-1,0l0.6,0.2L60.1,8.8z"/>
	<polygon class="st0" points="58.5,7.7 58,7.6 58.2,8 	"/>
	<path class="st0" d="M41.3,1.2c-0.5-0.2-0.9-0.4-1.2-0.5C40.6,1.1,41,1.5,41.3,1.2z"/>
	<path class="st0" d="M3.7,55.5c0.2,0.2,0.3,0.2,0.4,0.2C3.9,55.5,3.8,55.4,3.7,55.5z"/>
	<path class="st0" d="M40,0.7c-0.4-0.3-1-0.4-1.5-0.1c0.1,0,0.2,0.1,0.3,0.1C39.2,0.7,39.6,0.6,40,0.7z"/>
	<path class="st0" d="M72.2,42.6c0,0.2,0,0.4-0.1,0.7C72.1,43.2,72.2,43,72.2,42.6z"/>
	<path class="st0" d="M52.1,4.1C52.4,4.2,52.2,4.1,52.1,4.1L52.1,4.1z"/>
	<path class="st0" d="M53,6.4c-0.1,0-0.2,0-0.2,0.1C52.8,6.5,52.9,6.4,53,6.4z"/>
	<path class="st0" d="M52.1,4.2c0.1,0.1,0.2,0.2,0.4,0.3C52.4,4.4,52.3,4.3,52.1,4.2z"/>
	<path class="st0" d="M52.5,4.3c0.1,0.1,0.2,0.1,0.3,0.2C52.9,4.4,52.9,4.4,52.5,4.3z"/>
	<path class="st0" d="M52.1,4.1C52,4,51.8,4,51.6,3.9C51.8,4,52,4.1,52.1,4.1C52.1,4.1,52.1,4.1,52.1,4.1z"/>
	<path class="st0" d="M72.1,43.3c-0.1,0.3-0.4-0.1-0.7,0c0.3-0.7,0.7-1.3,0.9-2c-0.6-0.4,0.1-2.3-0.6-2.5l0.1,0.7
		c-0.4-0.5-0.8-0.1-1.3,0.3c0-0.6,0.1-1.3,0.1-1.9c0-9.9-4.2-18.9-10.9-25.2c0,0,0,0,0,0l0.1-0.2c-0.3-0.2-0.6-0.4-0.5-0.2
		c-0.3-0.2-0.5-0.5-0.8-0.7c0.7,0.2,1.2-1.1,1.1-2.1c-0.1,0.1-0.2,0.2-1-0.1c0.1,0.3,1.1,1.6,0.3,1.4c-0.9-0.6-0.6-0.7-0.9-1.2
		c0,0.6-1.2,0-1.6,0.3c-0.4-0.3-0.9-0.6-1.3-0.9l0.1-0.5l-0.5,0.2l0.4,0.3C53.8,8,52.4,7.2,51,6.5c0,0,0-0.1,0-0.2l-0.6-0.2
		c-0.3-0.6,1.3-0.1,0.7-0.6c0.4,0,0.9,0.1,1.4,0.2c0.2,0,0.5,0.1,0.7,0.2c0.2,0.1,0.5,0.3,0.7,0.5l-0.1,0.6C53.9,7,53.3,6.4,53,6.4
		c0.6,0,1.1,1.6,2,1.2l-0.5-0.8c0.9,0.2,2.2,0.1,2.9,1c0-0.8-0.2-0.1-0.4-1.1c0.1,1.1-2.3-1.5-1.9-0.1c-0.2-1.1-0.9-1-1.5-2.1
		c-0.1,0.2,0.1,0.5-0.6,0c-0.1,0-0.2,0.1-0.3,0.1c0,0,0,0,0,0l0,0c0,0-0.1,0,0,0c0.2,0.2,0.3,0.3,0.3,0.5c-0.6,0.2-1.9-0.4-2.4-0.4
		c-0.4-0.3,0.3-0.1,0.1-0.4c-0.3,0-0.5,0-0.8,0.1c0.1-0.4-1-1.2,0.2-1L49,2.9C48.4,2.4,47.6,2,47,2c-0.5-0.2-1.4,0.1-0.9-0.1
		l-1.8-0.2l0-0.1c-0.8-0.3-1.8-0.2-2.7-0.2c-0.9,0-1.9-0.2-2.8-0.6c-0.6,0.1-1.2,0.2-2.2,0l-0.2-0.4c-0.8,0.1-2.3-0.3-2.6,0.1
		c-0.2-0.3-0.6-0.4-1-0.4C32.4,0,32,0,31.5,0.1c-1,0.2-2,0.5-2.7,0.5l0,0.5c-0.9,0.1-1.7,0.5-2.8,1l0.2,0.4c-0.8,0.5-2.5,0.4-3.9,1
		c0-0.2,0.4-0.3,0.7-0.3c-0.5-0.1-1,0-1.4,0.2c-0.4,0.2-0.8,0.5-1.2,0.8c-0.8,0.6-1.5,1.2-2.4,1.3c-0.3,0.4-0.6,0.5-0.9,0.5
		c0,0,0.1,0,0.1-0.1c0,0-0.1,0.1-0.1,0.1c-0.2,0-0.4,0.1-0.6,0.1c0.2,0,0.4,0,0.5,0c-0.3,0.2-0.7,0.5-1,0.8l-0.4-0.3
		c0.3-0.3,0.6-0.4,0.9-0.5c-0.7,0-1.6-0.1-1.3,0.2l0.4,0.3c0,0-0.1,0-0.1,0.1c-0.5,0.1-0.2,0.4,0.2,0.6c-0.2,0.2-0.3,0.4-0.3,0.6
		c-0.8-0.4-0.8,0.9-1.7,0.6c0,0.3-0.4,0.7-0.8,1.1c-0.4,0.5-0.6,1-0.5,1.4c-0.1-0.1-0.2,0,0-0.2c-0.4,0.3-0.9,0.6-1.1,1l-0.6-0.3
		c-0.1,0.4-0.2,0.9-0.2,1.4c-0.7,0.2-1.1,0.3-1-0.5c-0.6,1.7-0.7,1.2-1.1,2.7l-0.3-0.3c-0.3,0.4-0.3,1.4-0.8,1.4
		c-1.4,0.4-3.2,4.5-5,6.9c0.7,0,0.4,0.2,0.1,0.5c-0.3,0.3-0.7,0.7-0.3,1c-0.3,0.1-0.6,0.4-0.7-0.1c-0.2,1.5-1.2,2-0.7,3.2
		c-0.3,0.1-0.3-0.4-0.5-0.3c0,0.1,0.1,0.5-0.1,0.6C0,28.2,0,27.8,0,27.5c-0.3,1.5,0.4,1.9,1.2,2.2c-0.3,0.3-0.4,0.6-0.5,0.8
		c0,0.3,0.1,0.5,0.3,0.8C0.7,31.6,0.4,32,0.4,31c-0.1,0.5-0.9,3.1-0.2,3.3c-0.2,0.1-0.1,0.7,0,0.9C0.1,36.3,0,36.4,0,37.6l0.1-0.3
		c0.7,0.5,0.2,0.9,0.3,1.9l-0.1,0c-0.2,1.1-0.1,1.3-0.1,1.5c0.1,0.2,0.1,0.4-0.1,1.5L0.7,42C1.8,42,0.4,43.8,1,45l0.2-0.5
		c0.4,0.6-0.9,2.1-0.9,2.8c0,0.2-0.2-0.2-0.3-0.4c-0.1,1.9,0.7,0.1,1.1,1.3c-0.3,0.3-0.9-0.1-0.7,0.8c-0.1,0.5,1.9,2.1,1.8,3.5
		c0.1-0.4,0.2-0.7,0.7-0.2c0.5,0.8,0.2,2.8,1.4,3.1c0,0.1,0,0.2-0.1,0.2c0.6,0.5,1.5,1.8,2.1,1.9c-0.5,0.7,0.3,1.5,1.1,2.2
		c0.8,0.7,1.6,1.2,1,1.7l1.6,1.6l-0.2,0.1c0.9,1.1,1.6,1.1,2.2,1.2c0.2,0.3-0.1,0.2-0.2,0.3c1.3,1.6,1.6,1.7,3.4,2.1L15,67.3
		c0.3,0,0.7,0.6,1.5,1.2c0.7,0.6,1.6,1.4,2.7,1.5c0,0-0.1,0.1-0.3,0.1c1.2,0.2,2.2,1.2,3.3,1.8c1.1,0.6,2,1,2.7,0.3
		c0.5,0.1,1,0,1.6,0c-1.8-0.6,0.5-0.7-0.2-1.2c0.7,0.1,1.7,1,0.8,0.9l-0.1-0.1c-0.6,0.8,2.2,0.9,2,1.5c3.7,0.7,7.5,1.3,11.1,1
		c-0.2-0.2-0.3-0.4-0.5-0.7c0.4,0,0.8-0.1,1.2-0.1c0.3,0.1,0.5,0.5-0.4,0.6c0.5,0.3,1.4-0.6,1.4-0.7c1.8,0-0.5,0.9,0,0.9l0.7-0.2
		L42.4,74c0.5-0.4,0.5-0.6,1.6-0.9c0.7,0,0.4,0.4,0.7,0.3c0,0.1,0.1,0.1,0.4-0.1l1.6-0.3l-0.8-0.4c0.6-0.4,1.4-0.4,0.5-0.8
		c0.6,0.3,2-0.1,3.4-0.6c1.3-0.5,2.5-1.3,2.8-1.2c0.7-0.8,1.5-1.3,2.5-1.9c-0.3,0.1-0.8-0.4,0.1-0.9c0.2,0.6,0.7,0.6,1.3,0.3
		c0.6-0.3,1.2-0.7,1.8-0.6c-0.5,0,0.1-0.5,0.6-1c0.5-0.5,0.9-1,0.1-0.9c0.7-0.5,0.4,0.3,1.1,0.1c0.6-0.9,1.5-1.5,2.4-2.4
		c0.9-0.8,1.9-1.6,2.6-2.7c-0.1-0.1-0.6,0-0.5-0.6l1.5-0.6c0.2-0.5-0.5-0.9,0.4-1.4c-0.2,0-0.5,0.1-0.4-0.2c1.7-1.8,2.7-4.2,3.6-6.6
		c0.4-1.2,0.9-2.4,1.2-3.6c0.2-0.6,0.4-1.2,0.7-1.8c0.3-0.6,0.5-1.2,0.8-1.8C72,44.3,72,43.8,72.1,43.3z M58.4,11.4
		c-0.3-0.3-0.7-0.6-1-0.8C57.8,10.6,58.2,10.9,58.4,11.4z M57.2,10.4C57.2,10.4,57.2,10.4,57.2,10.4C57.2,10.4,57.2,10.4,57.2,10.4
		L57.2,10.4z M48,2.9C48,2.9,48,2.9,48,2.9C47.5,2.5,47.7,2.6,48,2.9z M42.8,2.5c1.4,0,0.5,0.7,0.7,0.6c1.2,0.4,1.8,0.2,2.4,0
		c0.6-0.2,1.1-0.3,2,0.3c0.6,0.8-0.3,1-0.3,1.5c-0.5-0.1-0.9-0.3-1.2-0.5c-0.3-0.2-0.6-0.4-1-0.5l0.8,0.5c-0.4,0.1-1.1,0-1.4-0.2
		c0.1,0.1,0.1,0.1,0.2,0.2c-1.6-0.4-3.2-0.7-4.8-0.9C40.7,2.9,41.6,2.6,42.8,2.5z M34.6,2.8c0,0.1,0.1,0.3,0.2,0.4c-0.3,0-0.6,0-1,0
		C34,3,34.3,2.8,34.6,2.8z M27.3,2.9c0.1,0,0.6,0.1,1.2,0.2c0.6,0.1,1.2,0.3,1.4,0.4C30,3.5,30,3.6,30,3.7c-0.4,0.1-0.8,0.1-1.2,0.2
		l-0.2-0.7l0,0.8c-0.4,0.1-0.8,0.2-1.2,0.3C27.3,3.7,27.2,3.1,27.3,2.9z M21,5l0.4,0.2c0.3-0.3,0.6-0.6,0.9-0.8
		c-0.2,0.4-0.4,1.2-0.8,1.9c-0.6,0.3-1.2,0.6-1.7,0.8C20.1,6.3,20.4,5.5,21,5z M11.1,13.7c-0.2,0.2-0.4,0.4-0.6,0.6
		c0-0.4,0-0.8-0.1-1.2C10.5,13.3,10.8,13.5,11.1,13.7z M2,30.4c0-0.1-0.1-0.2-0.1-0.3c0.1-0.2,0.3-0.2,0.4-0.2
		c-0.1,0.2-0.1,0.5-0.2,0.7C2.1,30.5,2,30.4,2,30.4c0,0.1,0.1,0.2,0.1,0.4c0,0.1,0,0.2-0.1,0.3c-0.2,0.2-0.4,0.4-0.5,0.5
		c0-0.5-0.1-1-0.1-1.5C1.6,29.9,1.8,30.1,2,30.4z M44.7,73.2l-0.3-0.1C45,72.9,44.9,73,44.7,73.2z"/>
	<path class="st0" d="M55.5,6c0-0.1,0-0.3,0.2-0.2l-0.8-0.3C55.3,5.7,55.3,5.8,55.5,6z"/>
	<path class="st0" d="M55.5,7.6c-0.2,0.4,0.4,0.5,0.8,0.8c0,0-0.1,0-0.1-0.1C56.7,7.9,56.1,7.7,55.5,7.6z"/>
	<path class="st0" d="M56.4,8.4c0.1,0.1,0.3,0.2,0.4,0.3C57,8.6,56.7,8.5,56.4,8.4z"/>
	<path class="st0" d="M50.8,3.8c0.2,0.2,0.4-0.4,0.4-0.2C51.7,3.3,49.3,3.5,50.8,3.8z"/>
	<path class="st0" d="M51.6,6.5L52.3,7c0-0.1,0.1-0.1,0.3,0C52.1,6.7,51.6,6.3,51.6,6.5z"/>
	<path class="st0" d="M52.6,6.9c0.2,0.1,0.5,0.3,0.6,0.3C53.1,7.1,52.8,7,52.6,6.9z"/>
	<path class="st0" d="M42.2,3.6c0.2-0.1,0.6-0.1,0.5-0.3l-1,0C41.6,3.5,41.9,3.6,42.2,3.6z"/>
	<polygon class="st0" points="73,39.9 73.2,39.1 72.9,39.6 	"/>
	<path class="st0" d="M72.9,38.2l-0.6-0.5c0,0.2,0.1,0.5-0.1,0.6L72.9,38.2z"/>
</g>
<polygon class="st1" points="22.3,35.4 31.2,35.4 31.2,35.4 22.3,35.4 "/>
</svg>
